<?xml version="1.0" encoding="UTF-8" standalone="no"?>
<!DOCTYPE svg PUBLIC "-//W3C//DTD SVG 1.1//EN" "http://www.w3.org/Graphics/SVG/1.1/DTD/svg11.dtd"><svg
    width="100%"
    height="100%"
    viewBox="0 0 8000 4500"
    version="1.1"
    xmlns="http://www.w3.org/2000/svg"
    xmlns:xlink="http://www.w3.org/1999/xlink"
    xml:space="preserve"
    xmlns:serif="http://www.serif.com/"
    style="fill-rule: evenodd; clip-rule: evenodd; stroke-linejoin: round; stroke-miterlimit: 2"
>
    <g transform="matrix(1417.94,0,0,1417.94,1731.59,2633.38)"><path
            d="M0.279,-0l-0.255,-0.728l0.165,0l0.117,0.351c0.014,0.045 0.028,0.094 0.042,0.147c0.015,0.053 0.03,0.111 0.045,0.174l-0.032,0c0.016,-0.064 0.03,-0.122 0.044,-0.175c0.014,-0.053 0.027,-0.101 0.041,-0.146l0.112,-0.351l0.165,0l-0.25,0.728l-0.194,-0Z"
            style="fill: #1e50d9; fill-rule: nonzero"
        /></g><g transform="matrix(1417.94,0,0,1417.94,2706.43,2633.38)"><path
            d="M0.215,0.011c-0.035,-0 -0.066,-0.007 -0.093,-0.019c-0.028,-0.012 -0.049,-0.03 -0.065,-0.054c-0.016,-0.025 -0.024,-0.055 -0.024,-0.091c0,-0.03 0.006,-0.056 0.017,-0.076c0.011,-0.02 0.026,-0.037 0.046,-0.049c0.019,-0.013 0.041,-0.022 0.066,-0.029c0.024,-0.006 0.05,-0.011 0.077,-0.013c0.032,-0.004 0.057,-0.007 0.076,-0.009c0.02,-0.003 0.034,-0.008 0.043,-0.014c0.009,-0.006 0.014,-0.014 0.014,-0.026l-0,-0.003c-0,-0.015 -0.004,-0.028 -0.01,-0.039c-0.007,-0.011 -0.017,-0.019 -0.029,-0.025c-0.013,-0.006 -0.029,-0.008 -0.047,-0.008c-0.019,-0 -0.035,0.002 -0.049,0.008c-0.014,0.006 -0.025,0.013 -0.034,0.023c-0.009,0.009 -0.016,0.02 -0.02,0.032l-0.134,-0.023c0.009,-0.031 0.025,-0.058 0.047,-0.08c0.021,-0.023 0.049,-0.04 0.081,-0.051c0.032,-0.012 0.069,-0.018 0.109,-0.018c0.03,0 0.058,0.004 0.086,0.011c0.028,0.007 0.052,0.017 0.074,0.032c0.022,0.015 0.04,0.034 0.053,0.058c0.013,0.023 0.019,0.051 0.019,0.084l0,0.368l-0.139,-0l0,-0.076l-0.005,0c-0.008,0.017 -0.02,0.032 -0.035,0.045c-0.014,0.013 -0.032,0.023 -0.053,0.031c-0.02,0.007 -0.044,0.011 -0.071,0.011Zm0.041,-0.103c0.023,-0 0.044,-0.005 0.061,-0.014c0.017,-0.009 0.031,-0.021 0.041,-0.037c0.01,-0.016 0.015,-0.033 0.015,-0.052l-0,-0.059c-0.005,0.003 -0.011,0.006 -0.02,0.008c-0.009,0.003 -0.018,0.005 -0.029,0.007c-0.011,0.002 -0.021,0.004 -0.032,0.006c-0.01,0.001 -0.02,0.003 -0.028,0.004c-0.018,0.002 -0.034,0.006 -0.047,0.012c-0.014,0.006 -0.024,0.014 -0.032,0.023c-0.008,0.01 -0.011,0.022 -0.011,0.037c-0,0.014 0.003,0.026 0.01,0.036c0.008,0.009 0.017,0.017 0.03,0.022c0.012,0.004 0.026,0.007 0.042,0.007Z"
            style="fill: #1e50d9; fill-rule: nonzero"
        /></g><g transform="matrix(1417.94,0,0,1417.94,3529.64,2633.38)"><path
            d="M0.062,-0l0,-0.546l0.147,0l-0,0.546l-0.147,-0Zm0.074,-0.617c-0.022,-0 -0.041,-0.007 -0.057,-0.022c-0.016,-0.015 -0.024,-0.033 -0.024,-0.053c0,-0.021 0.008,-0.039 0.024,-0.054c0.016,-0.014 0.035,-0.022 0.057,-0.022c0.022,0 0.041,0.008 0.057,0.022c0.015,0.015 0.023,0.033 0.023,0.054c0,0.02 -0.008,0.038 -0.023,0.053c-0.016,0.015 -0.035,0.022 -0.057,0.022Z"
            style="fill: #1e50d9; fill-rule: nonzero"
        /></g><g transform="matrix(1417.94,0,0,1417.94,3913.89,2633.38)"><rect
            x="0.062"
            y="-0.728"
            width="0.146"
            height="0.728"
            style="fill: #1e50d9; fill-rule: nonzero"
        /></g><g transform="matrix(1417.94,0,0,1417.94,4298.15,2633.38)"><path
            d="M0.066,-0l-0,-0.728l0.166,0l0.23,0.369c0.011,0.019 0.023,0.039 0.035,0.061c0.013,0.022 0.025,0.047 0.037,0.074c0.013,0.027 0.025,0.057 0.038,0.091l-0.015,0c-0.003,-0.027 -0.005,-0.056 -0.007,-0.086c-0.001,-0.031 -0.003,-0.06 -0.004,-0.088c-0.001,-0.028 -0.002,-0.052 -0.002,-0.071l0,-0.35l0.152,0l0,0.728l-0.166,-0l-0.209,-0.334c-0.015,-0.025 -0.03,-0.049 -0.043,-0.073c-0.013,-0.023 -0.026,-0.05 -0.04,-0.078c-0.015,-0.029 -0.031,-0.063 -0.051,-0.102l0.019,-0c0.002,0.035 0.004,0.068 0.006,0.101c0.002,0.032 0.003,0.061 0.005,0.087c0.001,0.027 0.001,0.048 0.001,0.065l0,0.334l-0.152,0Z"
            style="fill: #1e50d9; fill-rule: nonzero"
        /></g><g transform="matrix(1417.94,0,0,1417.94,5378.92,2633.38)"><path
            d="M0.307,0.011c-0.055,-0 -0.102,-0.012 -0.142,-0.036c-0.04,-0.023 -0.071,-0.056 -0.093,-0.098c-0.021,-0.042 -0.032,-0.092 -0.032,-0.148c-0,-0.056 0.011,-0.105 0.032,-0.148c0.022,-0.042 0.053,-0.075 0.093,-0.098c0.04,-0.024 0.087,-0.036 0.142,-0.036c0.055,0 0.102,0.012 0.142,0.036c0.04,0.023 0.071,0.056 0.092,0.098c0.022,0.043 0.033,0.092 0.033,0.148c-0,0.056 -0.011,0.106 -0.033,0.148c-0.021,0.042 -0.052,0.075 -0.092,0.098c-0.04,0.024 -0.087,0.036 -0.142,0.036Zm-0,-0.116c0.026,0 0.048,-0.007 0.065,-0.021c0.018,-0.015 0.031,-0.035 0.039,-0.06c0.009,-0.025 0.014,-0.053 0.014,-0.085c-0,-0.032 -0.005,-0.061 -0.014,-0.086c-0.008,-0.025 -0.021,-0.045 -0.039,-0.059c-0.017,-0.014 -0.039,-0.021 -0.065,-0.021c-0.026,-0 -0.048,0.007 -0.066,0.021c-0.017,0.014 -0.03,0.034 -0.039,0.059c-0.009,0.025 -0.013,0.054 -0.013,0.086c-0,0.032 0.004,0.06 0.013,0.085c0.009,0.025 0.022,0.045 0.039,0.06c0.018,0.014 0.04,0.021 0.066,0.021Z"
            style="fill: #1e50d9; fill-rule: nonzero"
        /></g><g transform="matrix(1417.94,0,0,1417.94,6248.51,2633.38)"><path
            d="M0.334,-0.546l-0,0.112l-0.324,-0l-0,-0.112l0.324,0Zm-0.249,-0.13l0.146,0l0,0.516c0,0.018 0.004,0.03 0.012,0.039c0.008,0.008 0.02,0.012 0.038,0.012c0.006,0 0.014,-0.001 0.024,-0.002c0.01,-0.001 0.017,-0.003 0.023,-0.004l0.021,0.11c-0.017,0.005 -0.033,0.008 -0.049,0.01c-0.016,0.002 -0.031,0.003 -0.046,0.003c-0.055,-0 -0.097,-0.014 -0.126,-0.04c-0.029,-0.027 -0.043,-0.065 -0.043,-0.115l-0,-0.529Z"
            style="fill: #1e50d9; fill-rule: nonzero"
        /></g><g transform="matrix(1417.94,0,0,1417.94,6753.93,2633.38)"><path
            d="M0.309,0.011c-0.055,-0 -0.103,-0.012 -0.144,-0.035c-0.04,-0.022 -0.071,-0.055 -0.093,-0.097c-0.021,-0.042 -0.032,-0.092 -0.032,-0.149c-0,-0.056 0.01,-0.106 0.032,-0.148c0.021,-0.042 0.052,-0.075 0.091,-0.099c0.04,-0.024 0.086,-0.036 0.139,-0.036c0.036,0 0.069,0.006 0.1,0.017c0.031,0.012 0.058,0.029 0.081,0.052c0.024,0.023 0.042,0.051 0.055,0.086c0.013,0.035 0.02,0.075 0.02,0.122l-0,0.041l-0.458,0l-0,-0.092l0.387,0l-0.069,0.025c0,-0.029 -0.004,-0.053 -0.013,-0.074c-0.009,-0.021 -0.021,-0.038 -0.038,-0.049c-0.018,-0.012 -0.039,-0.017 -0.064,-0.017c-0.025,-0 -0.047,0.005 -0.064,0.017c-0.018,0.012 -0.032,0.028 -0.041,0.048c-0.009,0.02 -0.014,0.043 -0.014,0.068l0,0.065c0,0.032 0.006,0.058 0.016,0.08c0.011,0.021 0.026,0.037 0.045,0.048c0.019,0.011 0.041,0.016 0.067,0.016c0.017,0 0.032,-0.002 0.046,-0.007c0.014,-0.005 0.026,-0.012 0.036,-0.022c0.01,-0.009 0.018,-0.021 0.023,-0.035l0.133,0.025c-0.009,0.03 -0.024,0.056 -0.046,0.079c-0.022,0.022 -0.049,0.04 -0.082,0.052c-0.033,0.012 -0.07,0.019 -0.113,0.019Z"
            style="fill: #1e50d9; fill-rule: nonzero"
        /></g><g transform="matrix(1417.94,0,0,1417.94,7598.6,2633.38)"></g><rect
        x="454.989"
        y="2835.63"
        width="4152.96"
        height="119.324"
        style="fill: #2861e3"
    /><path
        d="M1289.95,1586.55c26.563,-26.563 62.629,-41.502 100.195,-41.502c77.733,-0 141.698,63.964 141.698,141.697c-0,37.567 -14.939,73.633 -41.502,100.196l-834.963,868.361l-200.391,0l-0,-200.391l834.963,-868.361Z"
        style="fill: #2861e3"
    />
</svg>
